<svg aria-hidden="true" style="width: 0px; height: 0px; overflow: hidden; position: absolute;" xmlns="http://www.w3.org/2000/svg">
    <symbol id="burger" viewBox="0 0 101 25">
      <path d="M37.4,25c-15,0-27.9-0.9-33.7-3.3c-1-0.4-3-1.3-2.7-2.8c0.5-2.6,9-3,40.2-3c19.2,0,45.6,0,47.5-2.6c0,0,0,0,0,0c-1.8-2.1-21.2-2.9-35.4-3.5c-15.6-0.6-30.4-1.2-35-3.2c-0.5-0.2-1.9-0.8-1.6-2C17.2,2.3,24,1.7,55.1,1c10.2-0.2,20.8-0.4,22.1-1L78,1.9C76.3,2.6,68.6,2.8,55.1,3C42.5,3.3,24.1,3.7,19.5,4.9C24.1,6.6,39,7.2,53.4,7.8c24.7,1,35.7,1.7,37.1,4.7c0.2,0.4,0.4,1.1-0.3,2c-2.4,3.2-20.1,3.4-49.1,3.4c-15.3,0-34.2,0-37.8,1.4c0.2,0.1,0.6,0.3,1.1,0.6c13.8,5.8,68.4,2.5,95.4-0.1l0.2,2C84.2,23.2,58.7,25,37.4,25z"/>
    </symbol>
    <symbol id="chevron_down" viewBox="0 0 12 12">
      <polygon points="6,9 0.8,4.5 2.2,3 6,6.4 9.8,3 11.2,4.5"/>
    </symbol>
    <symbol id="arrow_right" viewBox="0 0 24 24">
      <polygon points="11.3,24 9.3,22.1 17.8,13.4 0.9,13.4 0.9,10.6 17.9,10.6 9.3,1.9 11.3,0 23.1,12 21.6,13.5" />
    </symbol>
    <symbol id="arrow_left" viewBox="0 0 24 24">
      <polygon points="12.7,0 14.7,1.9 6.2,10.6 23.1,10.6 23.1,13.4 6.1,13.4 14.7,22.1 12.7,24 0.9,12 2.4,10.5"/>
    </symbol>
    <symbol id="wa" viewBox="0 0 50 50">
      <path d="M0.5,49.5c0.6-2.2,1.2-4.4,1.8-6.6c0.5-1.7,1-3.4,1.4-5.1c0.1-0.3,0-0.6-0.1-0.9c-2-3.7-3.1-7.6-3.1-11.8C0.5,20,2,15.2,5,10.9c3.1-4.3,7.1-7.4,12.1-9.1C21,0.5,25,0.1,29.1,0.9c8.7,1.6,14.8,6.5,18.4,14.5c1.9,4.3,2.4,8.8,1.6,13.5c-1.3,7.8-5.5,13.7-12.4,17.5c-7.4,4-15.1,4.1-22.7,0.4c-0.7-0.3-1.3-0.5-2.1-0.2c-3.7,1-7.4,1.9-11,2.9C0.8,49.4,0.7,49.5,0.5,49.5L0.5,49.5z M6.4,43.7c0.3-0.1,0.5-0.1,0.7-0.2c2-0.5,3.9-1,5.9-1.5c0.4-0.1,0.8-0.1,1.2,0.2c4.5,2.7,9.3,3.7,14.4,2.7c5.4-1,9.7-3.7,12.9-8.2c3.5-4.9,4.6-10.3,3.3-16.2c-1.4-6.3-5.1-11-10.9-13.8c-5.4-2.7-11-2.8-16.5-0.5C11.4,8.6,7.4,13,5.6,19.1c-1.8,6-0.9,11.8,2.5,17.1c0.2,0.4,0.3,0.7,0.2,1.1C7.7,39.4,7.1,41.5,6.4,43.7L6.4,43.7z"/>
      <path d="M17.2,13.5c1.1-0.2,1.7,0.4,2.1,1.4c0.5,1.4,1.1,2.7,1.7,4c0.3,0.7,0.3,1.2-0.3,1.7c-0.5,0.5-0.9,1.1-1.4,1.6c-0.4,0.4-0.4,0.8-0.2,1.3c2,3.5,4.9,5.8,8.6,7.2c0.4,0.2,0.7,0,1-0.3c0.6-0.8,1.2-1.5,1.8-2.3c0.4-0.5,0.8-0.6,1.4-0.3c1.6,0.8,3.2,1.5,4.8,2.2c0.7,0.3,0.8,0.7,0.7,1.4c-0.7,4.4-4.7,5.8-8.3,4.8c-5.3-1.6-9.6-4.7-13-9.1c-1.5-1.9-2.7-3.9-3.3-6.2c-0.6-2.8,0.1-5.1,2.2-7C15.7,13.5,16.4,13.5,17.2,13.5L17.2,13.5z"/>
    </symbol>
    <symbol id="tg" viewBox="0 0 50 50">
      <path d="M48,4.3c1.1,0,1.7,0.7,1.5,1.7c-0.2,1.1-0.5,2.2-0.7,3.3c-2.5,11.4-4.9,22.9-7.4,34.3c-0.1,0.3-0.1,0.6-0.2,0.8c-0.3,0.8-1.1,1.1-1.9,0.7c-0.2-0.1-0.4-0.2-0.6-0.4c-3.5-2.4-7-4.9-10.5-7.3c-1.2-0.9-1.9-0.9-3.1,0.1c-1.9,1.5-3.7,2.9-5.6,4.4c-1.2,0.9-2.1,0.7-2.6-0.7c-1.4-4.2-2.7-8.4-4-12.5c-0.1-0.4-0.4-0.6-0.8-0.8c-3.4-1.2-6.8-2.4-10.2-3.6c-0.1,0-0.3-0.1-0.4-0.1c-0.6-0.2-1-0.6-1-1.2c0-0.7,0.4-1.1,1-1.3c2-0.7,4-1.5,6-2.2C20.7,14.4,34,9.4,47.2,4.5C47.5,4.4,47.8,4.3,48,4.3z M15.3,27.8c0,0.1,0.1,0.4,0.1,0.7c0.7,2.5,1.5,5.1,2.3,7.6c0.1,0.2,0.4,0.4,0.6,0.6c0.2-0.2,0.5-0.5,0.5-0.7c0.2-1.1,0.3-2.2,0.5-3.3c0.1-1.3,0.6-2.4,1.6-3.3c5.9-5.2,11.7-10.4,17.5-15.6c0.1-0.1,0.3-0.2,0.4-0.4c0.1-0.1,0.1-0.4,0.1-0.5c-0.1-0.1-0.3-0.1-0.5-0.1c-0.2,0-0.4,0.2-0.5,0.3C34.6,15,31.3,17,28,18.9c-3.8,2.2-7.5,4.5-11.3,6.7C15.9,26.1,15.3,26.7,15.3,27.8L15.3,27.8z"/>
    </symbol>
    <symbol id="close" viewBox="0 0 30 30">
      <polygon points="26.6,29.4 15,17.8 3.4,29.4 0.6,26.6 12.2,15 0.6,3.4 3.4,0.6 15,12.2 26.6,0.6 29.4,3.4 17.8,15 29.4,26.6"/>
    </symbol>
</svg>
